# File generated by FabConvert.com - Free Image and 3D model conversion tools

o obj1
v 8.25296021 25.39999962 15.6980629
v -0 25.39999962 9.70193672
v 8.25296021 0 15.6980629
v -0 0 9.70193672
v 5.10060978 25.39999962 25.40000153
v 5.10060978 0 25.40000153
v 13.35356998 25.39999962 19.40387344
v 13.35356998 -0 19.40387344
v 5.10060978 -0 25.40000153
v 21.60653114 25.39999962 25.40000153
v 21.60653114 0 25.40000153
v 13.35356998 0 19.40387344
v 18.45418167 25.39999962 15.6980629
v 18.45418167 0 15.6980629
v 21.60653114 0 25.40000153
v 26.70713997 25.39999962 9.70193672
v 26.70713997 0 9.70193672
v 18.45418167 0 15.6980629
v 16.50592041 25.39999962 9.70193672
v 16.50592041 0 9.70193672
v 13.35356998 25.39999962 0
v 13.35356998 -0 0
v 16.50592041 -0 9.70193672
v 10.20121956 25.39999962 9.70193672
v 10.20121956 0 9.70193672
v 13.35356998 0 0
v 0 25.39999962 9.70193672
v 0 0 9.70193672
v 10.20121956 0 9.70193672
v 13.35356998 0 0
vn -0.58779 0 0.80902
vn -0.95106 -0 -0.30902
vn 0.58779 0 0.80902
vn -0.58779 0 0.80902
vn 0.95106 0 -0.30902
vn 0 0 -1
vn 0.95106 0 -0.30902
vn -0.95106 -0 -0.30902
vn 0 1 0
vn 0 -1 0
f 1//1 2//1 3//1
f 3//1 2//1 4//1
f 5//2 1//2 6//2
f 6//2 1//2 3//2
f 7//3 5//3 8//3
f 8//3 5//3 9//3
f 10//4 7//4 11//4
f 11//4 7//4 12//4
f 13//5 10//5 14//5
f 14//5 10//5 15//5
f 16//3 13//3 17//3
f 17//3 13//3 18//3
f 19//6 16//6 20//6
f 20//6 16//6 17//6
f 21//7 19//7 22//7
f 22//7 19//7 23//7
f 24//8 21//8 25//8
f 25//8 21//8 26//8
f 27//6 24//6 28//6
f 28//6 24//6 29//6
f 13//9 27//9 1//9
f 13//9 16//9 19//9
f 10//9 13//9 7//9
f 7//9 13//9 1//9
f 7//9 1//9 5//9
f 27//9 13//9 24//9
f 24//9 13//9 19//9
f 24//9 19//9 21//9
f 18//10 28//10 29//10
f 18//10 11//10 12//10
f 17//10 18//10 20//10
f 20//10 18//10 29//10
f 20//10 29//10 30//10
f 28//10 18//10 3//10
f 3//10 18//10 12//10
f 3//10 12//10 6//10
# Vertices: 30, normals: 10, texture coordinates: 0, faces: 36

